<?xml version="1.0" encoding="UTF-8" standalone="no"?>
<!-- Created with Inkscape (http://www.inkscape.org/) -->

<svg
   width="210mm"
   height="297mm"
   viewBox="0 0 210 297"
   version="1.1"
   id="svg233"
   inkscape:version="1.1.2 (b8e25be833, 2022-02-05)"
   sodipodi:docname="24.svg"
   xmlns:inkscape="http://www.inkscape.org/namespaces/inkscape"
   xmlns:sodipodi="http://sodipodi.sourceforge.net/DTD/sodipodi-0.dtd"
   xmlns="http://www.w3.org/2000/svg"
   xmlns:svg="http://www.w3.org/2000/svg">
  <sodipodi:namedview
     id="namedview235"
     pagecolor="#ffffff"
     bordercolor="#666666"
     borderopacity="1.0"
     inkscape:pageshadow="2"
     inkscape:pageopacity="0.0"
     inkscape:pagecheckerboard="0"
     inkscape:document-units="mm"
     showgrid="false"
     inkscape:zoom="0.70733726"
     inkscape:cx="581.75926"
     inkscape:cy="614.27557"
     inkscape:window-width="1920"
     inkscape:window-height="991"
     inkscape:window-x="-9"
     inkscape:window-y="-9"
     inkscape:window-maximized="1"
     inkscape:current-layer="layer1" />
  <defs
     id="defs230">
    <rect
       x="-329.40439"
       y="593.77616"
       width="344.95567"
       height="107.44521"
       id="rect30326" />
    <rect
       x="-640.43"
       y="373.23073"
       width="87.652671"
       height="94.721434"
       id="rect10100" />
  </defs>
  <g
     inkscape:label="圖層 1"
     inkscape:groupmode="layer"
     id="layer1">
    <rect
       style="fill:#aaeeff;fill-opacity:1;stroke:#000000;stroke-width:0.667766;stroke-opacity:0"
       id="rect14393"
       width="827.19733"
       height="326.49268"
       x="-358.93954"
       y="-2.994381" />
    <rect
       style="fill:#550000;fill-opacity:1;stroke-width:0.289683"
       id="rect37880"
       width="47.879093"
       height="44.138542"
       x="34.100761"
       y="133.10202" />
    <rect
       style="fill:#550000;fill-opacity:1;stroke-width:0.289683"
       id="rect38006"
       width="47.879093"
       height="44.138542"
       x="125.99497"
       y="133.10201" />
    <g
       id="g26868"
       transform="translate(-42.642319,1.1221434)">
      <g
         id="g14357"
         transform="translate(-11.969764,106.6058)">
        <rect
           style="fill:#ffdd55;fill-opacity:1;stroke:#000000;stroke-width:0.387993;stroke-opacity:0"
           id="rect7992"
           width="44.015125"
           height="45.137291"
           x="136.59193"
           y="24.375307" />
        <text
           xml:space="preserve"
           transform="matrix(1.6232261,0,0,1.057562,1181.9437,-374.46617)"
           id="text10098"
           style="font-style:normal;font-weight:normal;font-size:40px;line-height:1.25;font-family:sans-serif;white-space:pre;shape-inside:url(#rect10100);fill:#ffffff;fill-opacity:1;stroke:none"><tspan
             x="-640.42969"
             y="413.83594"
             id="tspan41583">?</tspan></text>
      </g>
      <g
         id="g30676"
         transform="translate(262.5869,25.061713)">
        <ellipse
           style="fill:#ffffff;fill-opacity:1;stroke:#000000;stroke-width:0.264583;stroke-opacity:0"
           id="path14563"
           cx="-186.09256"
           cy="38.340679"
           rx="21.13413"
           ry="14.027078" />
        <ellipse
           style="fill:#ffffff;fill-opacity:1;stroke:#000000;stroke-width:0.264583;stroke-opacity:0"
           id="path14565"
           cx="-210.78023"
           cy="45.821789"
           rx="22.256296"
           ry="13.653022" />
        <ellipse
           style="fill:#ffffff;fill-opacity:1;stroke:#000000;stroke-width:0.264583;stroke-opacity:0"
           id="path14567"
           cx="-159.16058"
           cy="45.634758"
           rx="23.75252"
           ry="11.969773" />
        <ellipse
           style="fill:#ffffff;fill-opacity:1;stroke:#000000;stroke-width:0.264583;stroke-opacity:0"
           id="path14569"
           cx="-187.77582"
           cy="54.612087"
           rx="22.069269"
           ry="12.717884" />
      </g>
      <g
         id="g30706"
         transform="translate(409.21663,69.574307)">
        <ellipse
           style="fill:#ffffff;fill-opacity:1;stroke:#000000;stroke-width:0.264583;stroke-opacity:0"
           id="ellipse30698"
           cx="-186.09256"
           cy="38.340679"
           rx="21.13413"
           ry="14.027078" />
        <ellipse
           style="fill:#ffffff;fill-opacity:1;stroke:#000000;stroke-width:0.264583;stroke-opacity:0"
           id="ellipse30700"
           cx="-210.78023"
           cy="45.821789"
           rx="22.256296"
           ry="13.653022" />
        <ellipse
           style="fill:#ffffff;fill-opacity:1;stroke:#000000;stroke-width:0.264583;stroke-opacity:0"
           id="ellipse30702"
           cx="-159.16058"
           cy="45.634758"
           rx="23.75252"
           ry="11.969773" />
        <ellipse
           style="fill:#ffffff;fill-opacity:1;stroke:#000000;stroke-width:0.264583;stroke-opacity:0"
           id="ellipse30704"
           cx="-187.77582"
           cy="54.612087"
           rx="22.069269"
           ry="12.717884" />
      </g>
      <g
         id="g30716"
         transform="translate(368.44459,-3.7405545)">
        <ellipse
           style="fill:#ffffff;fill-opacity:1;stroke:#000000;stroke-width:0.264583;stroke-opacity:0"
           id="ellipse30708"
           cx="-186.09256"
           cy="38.340679"
           rx="21.13413"
           ry="14.027078" />
        <ellipse
           style="fill:#ffffff;fill-opacity:1;stroke:#000000;stroke-width:0.264583;stroke-opacity:0"
           id="ellipse30710"
           cx="-210.78023"
           cy="45.821789"
           rx="22.256296"
           ry="13.653022" />
        <ellipse
           style="fill:#ffffff;fill-opacity:1;stroke:#000000;stroke-width:0.264583;stroke-opacity:0"
           id="ellipse30712"
           cx="-159.16058"
           cy="45.634758"
           rx="23.75252"
           ry="11.969773" />
        <ellipse
           style="fill:#ffffff;fill-opacity:1;stroke:#000000;stroke-width:0.264583;stroke-opacity:0"
           id="ellipse30714"
           cx="-187.77582"
           cy="54.612087"
           rx="22.069269"
           ry="12.717884" />
      </g>
      <g
         id="g26767"
         transform="translate(118.94962,-17.95466)">
        <g
           id="g36079"
           transform="translate(2.4122748,84.383366)">
          <path
             sodipodi:type="star"
             style="fill:#ffff00;fill-opacity:1;stroke:#000000;stroke-opacity:0"
             id="path30740"
             inkscape:flatsided="false"
             sodipodi:sides="5"
             sodipodi:cx="-424.12582"
             sodipodi:cy="503.29599"
             sodipodi:r1="107.00717"
             sodipodi:r2="53.503586"
             sodipodi:arg1="0.8134282"
             sodipodi:arg2="1.4417467"
             inkscape:rounded="0.14"
             inkscape:randomized="0"
             transform="matrix(0.2628514,0.0302238,-0.0302238,0.2628514,149.14035,-77.955307)"
             inkscape:transform-center-x="0.1406002"
             inkscape:transform-center-y="-2.5380966"
             d="m -350.61068,581.05239 c -7.22895,6.83465 -56.76403,-25.97799 -66.62967,-24.69772 -9.86565,1.28028 -49.38478,45.64955 -58.11878,40.88643 -8.734,-4.76312 7.16549,-62.01345 2.89923,-71.0006 -4.26627,-8.98716 -58.67603,-32.86123 -56.84499,-42.63964 1.83104,-9.77841 61.19254,-12.34843 68.42149,-19.18307 7.22895,-6.83464 13.121,-65.9589 22.98664,-67.23917 9.86564,-1.28027 30.65359,54.3817 39.38759,59.14482 8.734,4.76311 66.78525,-7.90362 71.05151,1.08354 4.26626,8.98716 -42.24759,45.95816 -44.07863,55.73658 -1.83104,9.77841 28.15456,61.07419 20.92561,67.90883 z" />
          <g
             id="g30863"
             transform="matrix(0.63054623,0,0,0.91735223,-48.24599,-100.11048)">
            <ellipse
               style="fill:#17280b;fill-opacity:1;stroke-width:0.264583"
               id="ellipse30855"
               cx="98.750626"
               cy="152.61461"
               rx="4.4886646"
               ry="7.1070528" />
            <ellipse
               style="fill:#e3e2db;fill-opacity:1;stroke-width:0.264583"
               id="ellipse30857"
               cx="97.628464"
               cy="151.67947"
               rx="1.870277"
               ry="2.8054156" />
            <ellipse
               style="fill:#17280b;fill-opacity:1;stroke-width:0.264583"
               id="ellipse30859"
               cx="122.31612"
               cy="152.61461"
               rx="4.4886646"
               ry="7.1070528" />
            <ellipse
               style="fill:#e3e2db;fill-opacity:1;stroke-width:0.264583"
               id="ellipse30861"
               cx="121.19395"
               cy="152.05353"
               rx="1.870277"
               ry="2.8054156" />
          </g>
        </g>
        <ellipse
           style="fill:#ffaacc;fill-opacity:1"
           id="ellipse16221"
           cx="38.340679"
           cy="132.9767"
           rx="4.6756926"
           ry="3.5535264" />
        <ellipse
           style="fill:#ffaacc;fill-opacity:1"
           id="ellipse16223"
           cx="11.782746"
           cy="132.9767"
           rx="4.6756926"
           ry="3.5535264" />
      </g>
      <rect
         style="fill:#800000;fill-opacity:1;stroke-width:0.264583"
         id="rect16761"
         width="333.28336"
         height="34.413097"
         x="-4.8627095"
         y="273.43451" />
      <rect
         style="fill:#00ff00;fill-opacity:1;stroke-width:0.146209"
         id="rect26738"
         width="333.28336"
         height="10.508612"
         x="-4.8627095"
         y="273.43451" />
      <g
         id="g20721"
         transform="translate(56.108313,46.756926)">
        <g
           id="g30893"
           transform="translate(63.963476,168.32495)">
          <ellipse
             style="fill:#ffd5d5;stroke-width:0.177396"
             id="path835"
             cx="25.264051"
             cy="53.755844"
             rx="11.764725"
             ry="10.581682" />
          <ellipse
             style="fill:#f9f9f9;fill-rule:evenodd;stroke-width:0.120927"
             id="path401"
             cx="24.495489"
             cy="33.894932"
             rx="24.497923"
             ry="18.575813" />
          <ellipse
             style="fill:#8dd35f;stroke-width:0.246769"
             id="path425"
             cx="24.578066"
             cy="21.81341"
             rx="8.6212196"
             ry="5.0505676" />
          <ellipse
             style="fill:#5aa02c;stroke-width:0.244107"
             id="ellipse651"
             cx="32.815178"
             cy="-46.290268"
             rx="9.0725279"
             ry="4.6963215"
             transform="matrix(-0.03588967,0.99935576,-0.9989541,-0.04572426,0,0)" />
          <ellipse
             style="fill:#71c837;stroke-width:0.407503"
             id="ellipse653"
             cx="25.773083"
             cy="40.968395"
             rx="10.669827"
             ry="11.128369" />
          <ellipse
             style="fill:#5aa02c;fill-opacity:1;stroke-width:0.267363"
             id="ellipse781"
             cx="35.845882"
             cy="-7.7745433"
             rx="9.0750942"
             ry="5.6321955"
             transform="matrix(-0.04304326,0.99907321,-0.99927292,-0.03812645,0,0)" />
          <g
             id="g6942"
             transform="matrix(0.5156037,0,0,0.49629959,-31.05234,-18.645138)">
            <ellipse
               style="fill:#17280b;fill-opacity:1;stroke-width:0.264583"
               id="path6770"
               cx="98.750626"
               cy="152.61461"
               rx="4.4886646"
               ry="7.1070528" />
            <ellipse
               style="fill:#e3e2db;fill-opacity:1;stroke-width:0.264583"
               id="path6794"
               cx="97.628464"
               cy="151.67947"
               rx="1.870277"
               ry="2.8054156" />
            <ellipse
               style="fill:#17280b;fill-opacity:1;stroke-width:0.264583"
               id="ellipse6916"
               cx="122.31612"
               cy="152.61461"
               rx="4.4886646"
               ry="7.1070528" />
            <ellipse
               style="fill:#e3e2db;fill-opacity:1;stroke-width:0.264583"
               id="ellipse6918"
               cx="121.19395"
               cy="152.05353"
               rx="1.870277"
               ry="2.8054156" />
          </g>
        </g>
        <ellipse
           style="fill:#ffaacc;fill-opacity:1;stroke-width:0.430422"
           id="ellipse16225"
           cx="79.673805"
           cy="228.36084"
           rx="1.4962215"
           ry="2.0573046" />
        <ellipse
           style="fill:#ffaacc;fill-opacity:1;stroke-width:0.430422"
           id="ellipse16229"
           cx="99.124687"
           cy="228.73489"
           rx="1.4962215"
           ry="2.0573046" />
      </g>
      <g
         id="g26736"
         transform="translate(166.82872,-14.214106)">
        <ellipse
           style="fill:#0000ff;fill-opacity:1;stroke-width:0.232688"
           id="ellipse20723"
           cx="44.138535"
           cy="272.87341"
           rx="19.45088"
           ry="24.126574" />
        <ellipse
           style="fill:#ffd5d5;fill-opacity:1;stroke:#000000;stroke-width:0.329157;stroke-opacity:0"
           id="ellipse20725"
           cx="44.138538"
           cy="240.89169"
           rx="16.426151"
           ry="15.678041" />
        <ellipse
           style="fill:#ffffff;fill-opacity:1;stroke:#000000;stroke-width:0.241964;stroke-opacity:0"
           id="ellipse20727"
           cx="45.260723"
           cy="213.59573"
           rx="33.302235"
           ry="25.457201" />
        <ellipse
           style="fill:#0000ff;fill-opacity:1;stroke:#000000;stroke-width:0.238555;stroke-opacity:0"
           id="ellipse20729"
           cx="44.699551"
           cy="196.80595"
           rx="14.786319"
           ry="8.3155966" />
        <ellipse
           style="fill:#0000ff;fill-opacity:1;stroke:#000000;stroke-width:0.238556;stroke-opacity:0"
           id="ellipse20731"
           cx="212.25081"
           cy="-77.831268"
           rx="13.972276"
           ry="8.8001528"
           transform="matrix(-0.0395427,0.99921788,-0.99937647,-0.03530829,0,0)" />
        <ellipse
           style="fill:#0000ff;fill-opacity:1;stroke:#000000;stroke-width:0.238556;stroke-opacity:0"
           id="ellipse20733"
           cx="223.68051"
           cy="-54.700871"
           rx="13.972276"
           ry="8.8001528"
           transform="matrix(-0.0395427,0.99921788,-0.99937647,-0.03530829,0,0)" />
        <ellipse
           style="fill:#0000ff;fill-opacity:1;stroke:#000000;stroke-width:0.238556;stroke-opacity:0"
           id="ellipse20735"
           cx="213.23502"
           cy="-29.956268"
           rx="13.972276"
           ry="8.8001528"
           transform="matrix(-0.0395427,0.99921788,-0.99937647,-0.03530829,0,0)" />
        <g
           id="g20747"
           transform="matrix(0.63054623,0,0,0.78577328,-25.42861,124.01762)">
          <ellipse
             style="fill:#17280b;fill-opacity:1;stroke-width:0.264583"
             id="ellipse20739"
             cx="98.750626"
             cy="152.61461"
             rx="4.4886646"
             ry="7.1070528" />
          <ellipse
             style="fill:#e3e2db;fill-opacity:1;stroke-width:0.264583"
             id="ellipse20741"
             cx="97.628464"
             cy="151.67947"
             rx="1.870277"
             ry="2.8054156" />
          <ellipse
             style="fill:#17280b;fill-opacity:1;stroke-width:0.264583"
             id="ellipse20743"
             cx="122.31612"
             cy="152.61461"
             rx="4.4886646"
             ry="7.1070528" />
          <ellipse
             style="fill:#e3e2db;fill-opacity:1;stroke-width:0.264583"
             id="ellipse20745"
             cx="121.19395"
             cy="152.05353"
             rx="1.870277"
             ry="2.8054156" />
        </g>
        <g
           id="g20753"
           transform="matrix(0.63013699,0,0,0.80341881,132.85115,132.93354)">
          <ellipse
             style="fill:#ffff00;fill-opacity:1;stroke-width:0.33229"
             id="ellipse20749"
             cx="-162.15303"
             cy="176.7412"
             rx="13.653023"
             ry="21.882242" />
          <ellipse
             style="fill:#0000ff;fill-opacity:1;stroke-width:0.264583"
             id="ellipse20751"
             cx="-163.64926"
             cy="175.99307"
             rx="10.66058"
             ry="17.767633" />
        </g>
        <g
           id="g20759"
           transform="matrix(0.63013699,0,0,0.80341881,159.40909,132.93354)">
          <ellipse
             style="fill:#ffff00;fill-opacity:1;stroke-width:0.33229"
             id="ellipse20755"
             cx="-162.15303"
             cy="176.7412"
             rx="13.653023"
             ry="21.882242" />
          <ellipse
             style="fill:#0000ff;fill-opacity:1;stroke-width:0.264583"
             id="ellipse20757"
             cx="-163.64926"
             cy="175.99307"
             rx="10.66058"
             ry="17.767633" />
        </g>
        <ellipse
           style="fill:#ffd5d5;fill-opacity:1;stroke-width:0.264583"
           id="ellipse20761"
           cx="-120.37815"
           cy="-249.83568"
           rx="5.7978587"
           ry="10.286524"
           transform="rotate(-159.34236)" />
        <ellipse
           style="fill:#ffd5d5;fill-opacity:1;stroke-width:0.264583"
           id="ellipse20763"
           cx="-119.26546"
           cy="256.67746"
           rx="5.7978587"
           ry="10.286524"
           transform="rotate(-38.177687)"
           inkscape:transform-center-x="-2.9924433"
           inkscape:transform-center-y="-3.3664987" />
        <ellipse
           style="fill:#a02c2c;fill-opacity:1;stroke-width:0.264583"
           id="ellipse20765"
           cx="36.096359"
           cy="298.49622"
           rx="7.6681361"
           ry="7.4811082" />
        <ellipse
           style="fill:#a02c2c;fill-opacity:1;stroke-width:0.264583"
           id="ellipse20767"
           cx="54.425076"
           cy="298.87027"
           rx="7.6681361"
           ry="7.4811082" />
        <path
           style="fill:#ff0000;fill-opacity:1;stroke-width:0.264583"
           id="path20769"
           sodipodi:type="arc"
           sodipodi:cx="43.764484"
           sodipodi:cy="249.10835"
           sodipodi:rx="4.86272"
           sodipodi:ry="6.7455544"
           sodipodi:start="0"
           sodipodi:end="3.1763354"
           sodipodi:arc-type="slice"
           d="m 48.627204,249.10835 a 4.86272,6.7455544 0 0 1 -2.480292,5.88049 4.86272,6.7455544 0 0 1 -4.910667,-0.11835 4.86272,6.7455544 0 0 1 -2.331546,-5.99645 l 4.859785,0.23431 z" />
        <ellipse
           style="fill:#ffaacc;fill-opacity:1"
           id="ellipse20771"
           cx="31.981735"
           cy="250.05605"
           rx="4.6756926"
           ry="3.5535264" />
        <ellipse
           style="fill:#ffaacc;fill-opacity:1"
           id="ellipse20773"
           cx="57.417503"
           cy="250.05605"
           rx="4.6756926"
           ry="3.5535264" />
      </g>
      <g
         id="g16257"
         transform="translate(136.53023,36.65743)">
        <ellipse
           style="fill:#0000ff;fill-opacity:1;stroke-width:0.232688"
           id="path11054"
           cx="-58.352646"
           cy="222.37595"
           rx="19.45088"
           ry="24.126574" />
        <ellipse
           style="fill:#ffd5d5;fill-opacity:1;stroke:#000000;stroke-width:0.329157;stroke-opacity:0"
           id="path31320"
           cx="-58.352642"
           cy="190.39421"
           rx="16.426151"
           ry="15.678041" />
        <g
           id="g31296"
           transform="translate(10.099496,4.8627204)">
          <ellipse
             style="fill:#ffffff;fill-opacity:1;stroke:#000000;stroke-width:0.241964;stroke-opacity:0"
             id="path31041"
             cx="-67.329956"
             cy="158.23553"
             rx="33.302235"
             ry="25.457201" />
          <ellipse
             style="fill:#ff2a2a;fill-opacity:1;stroke:#000000;stroke-width:0.238555;stroke-opacity:0"
             id="path31145"
             cx="-67.891129"
             cy="141.44576"
             rx="14.786319"
             ry="8.3155966" />
          <ellipse
             style="fill:#ff0000;fill-opacity:1;stroke:#000000;stroke-width:0.238556;stroke-opacity:0"
             id="ellipse31249"
             cx="160.90005"
             cy="36.861477"
             rx="13.972276"
             ry="8.8001528"
             transform="matrix(-0.0395427,0.99921788,-0.99937647,-0.03530829,0,0)" />
          <ellipse
             style="fill:#ff0000;fill-opacity:1;stroke:#000000;stroke-width:0.238556;stroke-opacity:0"
             id="ellipse31287"
             cx="172.32976"
             cy="59.991871"
             rx="13.972276"
             ry="8.8001528"
             transform="matrix(-0.0395427,0.99921788,-0.99937647,-0.03530829,0,0)" />
          <ellipse
             style="fill:#ff0000;fill-opacity:1;stroke:#000000;stroke-width:0.238556;stroke-opacity:0"
             id="ellipse31289"
             cx="161.88426"
             cy="84.736473"
             rx="13.972276"
             ry="8.8001528"
             transform="matrix(-0.0395427,0.99921788,-0.99937647,-0.03530829,0,0)" />
        </g>
        <g
           id="g36057"
           transform="matrix(0.63054623,0,0,0.78577328,-127.91979,73.520138)">
          <ellipse
             style="fill:#17280b;fill-opacity:1;stroke-width:0.264583"
             id="ellipse36049"
             cx="98.750626"
             cy="152.61461"
             rx="4.4886646"
             ry="7.1070528" />
          <ellipse
             style="fill:#e3e2db;fill-opacity:1;stroke-width:0.264583"
             id="ellipse36051"
             cx="97.628464"
             cy="151.67947"
             rx="1.870277"
             ry="2.8054156" />
          <ellipse
             style="fill:#17280b;fill-opacity:1;stroke-width:0.264583"
             id="ellipse36053"
             cx="122.31612"
             cy="152.61461"
             rx="4.4886646"
             ry="7.1070528" />
          <ellipse
             style="fill:#e3e2db;fill-opacity:1;stroke-width:0.264583"
             id="ellipse36055"
             cx="121.19395"
             cy="152.05353"
             rx="1.870277"
             ry="2.8054156" />
        </g>
        <g
           id="g11374"
           transform="matrix(0.63013699,0,0,0.80341881,30.359975,82.436061)">
          <ellipse
             style="fill:#ffff00;fill-opacity:1;stroke-width:0.33229"
             id="ellipse11352"
             cx="-162.15303"
             cy="176.7412"
             rx="13.653023"
             ry="21.882242" />
          <ellipse
             style="fill:#0000ff;fill-opacity:1;stroke-width:0.264583"
             id="path11246"
             cx="-163.64926"
             cy="175.99307"
             rx="10.66058"
             ry="17.767633" />
        </g>
        <g
           id="g11380"
           transform="matrix(0.63013699,0,0,0.80341881,56.91791,82.436061)">
          <ellipse
             style="fill:#ffff00;fill-opacity:1;stroke-width:0.33229"
             id="ellipse11376"
             cx="-162.15303"
             cy="176.7412"
             rx="13.653023"
             ry="21.882242" />
          <ellipse
             style="fill:#0000ff;fill-opacity:1;stroke-width:0.264583"
             id="ellipse11378"
             cx="-163.64926"
             cy="175.99307"
             rx="10.66058"
             ry="17.767633" />
        </g>
        <ellipse
           style="fill:#ffd5d5;fill-opacity:1;stroke-width:0.264583"
           id="path11404"
           cx="-6.6619663"
           cy="-238.7421"
           rx="5.7978587"
           ry="10.286524"
           transform="rotate(-159.34236)" />
        <ellipse
           style="fill:#ffd5d5;fill-opacity:1;stroke-width:0.264583"
           id="ellipse15837"
           cx="-168.62093"
           cy="153.63147"
           rx="5.7978587"
           ry="10.286524"
           transform="rotate(-38.177687)"
           inkscape:transform-center-x="-2.9924433"
           inkscape:transform-center-y="-3.3664987" />
        <ellipse
           style="fill:#a02c2c;fill-opacity:1;stroke-width:0.264583"
           id="path15861"
           cx="-66.394821"
           cy="247.99873"
           rx="7.6681361"
           ry="7.4811082" />
        <ellipse
           style="fill:#a02c2c;fill-opacity:1;stroke-width:0.264583"
           id="ellipse15965"
           cx="-48.066105"
           cy="248.37279"
           rx="7.6681361"
           ry="7.4811082" />
        <path
           style="fill:#ff0000;fill-opacity:1;stroke-width:0.264583"
           id="path15989"
           sodipodi:type="arc"
           sodipodi:cx="-58.726696"
           sodipodi:cy="198.61087"
           sodipodi:rx="4.86272"
           sodipodi:ry="6.7455544"
           sodipodi:start="0"
           sodipodi:end="3.1763354"
           sodipodi:arc-type="slice"
           d="m -53.863976,198.61087 a 4.86272,6.7455544 0 0 1 -2.480292,5.88049 4.86272,6.7455544 0 0 1 -4.910667,-0.11835 4.86272,6.7455544 0 0 1 -2.331547,-5.99645 l 4.859786,0.23431 z" />
        <ellipse
           style="fill:#ffaacc;fill-opacity:1"
           id="ellipse16219"
           cx="-70.509445"
           cy="199.55856"
           rx="4.6756926"
           ry="3.5535264" />
        <ellipse
           style="fill:#ffaacc;fill-opacity:1"
           id="ellipse16227"
           cx="-45.073677"
           cy="199.55856"
           rx="4.6756926"
           ry="3.5535264" />
      </g>
    </g>
    <text
       xml:space="preserve"
       transform="matrix(0.49018902,0,0,1.1630202,196.91948,-643.95717)"
       id="text30324"
       style="font-style:normal;font-weight:normal;font-size:40px;line-height:1.25;font-family:sans-serif;white-space:pre;shape-inside:url(#rect30326);fill:#ff2a2a;fill-opacity:1;stroke:none"><tspan
         x="-329.4043"
         y="630.1704"
         id="tspan41585">SUPER  MARⅠO</tspan></text>
    <path
       sodipodi:type="spiral"
       style="fill:none;fill-rule:evenodd;stroke:#0000ff;stroke-opacity:1"
       id="path38031"
       sodipodi:cx="-209.23541"
       sodipodi:cy="527.32977"
       sodipodi:expansion="1"
       sodipodi:revolution="3"
       sodipodi:radius="77.227661"
       sodipodi:argument="-18.435049"
       sodipodi:t0="0"
       d="m -209.23541,527.32977 c 3.54416,1.55944 -0.35352,5.54684 -2.59188,5.89064 -6.06583,0.93168 -9.74478,-5.87126 -9.1894,-11.0744 0.99346,-9.30718 11.04556,-14.26141 19.55692,-12.48815 12.49076,2.60234 18.87428,16.27644 15.7869,28.03943 -4.11498,15.67822 -21.52562,23.5259 -36.52194,19.08567 -18.87134,-5.58759 -28.1971,-26.78312 -22.38442,-45.00447 7.03993,-22.06849 32.04518,-32.87956 53.48698,-25.68317 25.26842,8.48068 37.56907,37.31008 28.98193,61.96949 -9.91419,28.47027 -42.5769,42.26329 -70.45201,32.28069 -31.67348,-11.34286 -46.9608,-47.84504 -35.57945,-78.93453 12.76816,-34.87771 53.11417,-51.6607 87.41705,-38.8782 38.0827,14.191 56.3624,58.38403 42.17696,95.89956"
       transform="matrix(0.13513657,0.22746967,-0.22746967,0.13513657,128.24233,220.84913)" />
    <path
       sodipodi:type="spiral"
       style="fill:none;fill-rule:evenodd;stroke:#0000ff;stroke-opacity:1"
       id="path40749"
       sodipodi:cx="-209.23541"
       sodipodi:cy="527.32977"
       sodipodi:expansion="1"
       sodipodi:revolution="3"
       sodipodi:radius="77.227661"
       sodipodi:argument="-18.435049"
       sodipodi:t0="0"
       d="m -209.23541,527.32977 c 3.54416,1.55944 -0.35352,5.54684 -2.59188,5.89064 -6.06583,0.93168 -9.74478,-5.87126 -9.1894,-11.0744 0.99346,-9.30718 11.04556,-14.26141 19.55692,-12.48815 12.49076,2.60234 18.87428,16.27644 15.7869,28.03943 -4.11498,15.67822 -21.52562,23.5259 -36.52194,19.08567 -18.87134,-5.58759 -28.1971,-26.78312 -22.38442,-45.00447 7.03993,-22.06849 32.04518,-32.87956 53.48698,-25.68317 25.26842,8.48068 37.56907,37.31008 28.98193,61.96949 -9.91419,28.47027 -42.5769,42.26329 -70.45201,32.28069 -31.67348,-11.34286 -46.9608,-47.84504 -35.57945,-78.93453 12.76816,-34.87771 53.11417,-51.6607 87.41705,-38.8782 38.0827,14.191 56.3624,58.38403 42.17696,95.89956"
       transform="matrix(-0.20595252,0.16609605,-0.16609605,-0.20595252,274.13114,302.36704)" />
    <path
       sodipodi:type="spiral"
       style="fill:none;fill-rule:evenodd;stroke:#0000ff;stroke-opacity:1"
       id="path40751"
       sodipodi:cx="-209.23541"
       sodipodi:cy="527.32977"
       sodipodi:expansion="1"
       sodipodi:revolution="3"
       sodipodi:radius="77.227661"
       sodipodi:argument="-18.435049"
       sodipodi:t0="0"
       d="m -209.23541,527.32977 c 3.54416,1.55944 -0.35352,5.54684 -2.59188,5.89064 -6.06583,0.93168 -9.74478,-5.87126 -9.1894,-11.0744 0.99346,-9.30718 11.04556,-14.26141 19.55692,-12.48815 12.49076,2.60234 18.87428,16.27644 15.7869,28.03943 -4.11498,15.67822 -21.52562,23.5259 -36.52194,19.08567 -18.87134,-5.58759 -28.1971,-26.78312 -22.38442,-45.00447 7.03993,-22.06849 32.04518,-32.87956 53.48698,-25.68317 25.26842,8.48068 37.56907,37.31008 28.98193,61.96949 -9.91419,28.47027 -42.5769,42.26329 -70.45201,32.28069 -31.67348,-11.34286 -46.9608,-47.84504 -35.57945,-78.93453 12.76816,-34.87771 53.11417,-51.6607 87.41705,-38.8782 38.0827,14.191 56.3624,58.38403 42.17696,95.89956"
       transform="matrix(0.25578908,0.06764827,-0.06764827,0.25578908,103.60099,-3.9816245)" />
    <path
       sodipodi:type="spiral"
       style="fill:none;fill-rule:evenodd;stroke:#0000ff;stroke-opacity:1"
       id="path40753"
       sodipodi:cx="-209.23541"
       sodipodi:cy="527.32977"
       sodipodi:expansion="1"
       sodipodi:revolution="3"
       sodipodi:radius="77.227661"
       sodipodi:argument="-18.435049"
       sodipodi:t0="0"
       d="m -209.23541,527.32977 c 3.54416,1.55944 -0.35352,5.54684 -2.59188,5.89064 -6.06583,0.93168 -9.74478,-5.87126 -9.1894,-11.0744 0.99346,-9.30718 11.04556,-14.26141 19.55692,-12.48815 12.49076,2.60234 18.87428,16.27644 15.7869,28.03943 -4.11498,15.67822 -21.52562,23.5259 -36.52194,19.08567 -18.87134,-5.58759 -28.1971,-26.78312 -22.38442,-45.00447 7.03993,-22.06849 32.04518,-32.87956 53.48698,-25.68317 25.26842,8.48068 37.56907,37.31008 28.98193,61.96949 -9.91419,28.47027 -42.5769,42.26329 -70.45201,32.28069 -31.67348,-11.34286 -46.9608,-47.84504 -35.57945,-78.93453 12.76816,-34.87771 53.11417,-51.6607 87.41705,-38.8782 38.0827,14.191 56.3624,58.38403 42.17696,95.89956"
       transform="matrix(0.23606182,0.11949543,-0.11949543,0.23606182,330.58037,147.47206)" />
    <ellipse
       style="fill:#ff9955;fill-opacity:1;stroke:none;stroke-width:0.187088;stroke-opacity:1"
       id="path41056"
       cx="35.161221"
       cy="240.51762"
       rx="3.3664985"
       ry="1.870277" />
    <ellipse
       style="fill:#ff9955;fill-opacity:1;stroke:none;stroke-width:0.187088;stroke-opacity:1"
       id="ellipse41464"
       cx="167.9509"
       cy="240.51762"
       rx="3.3664985"
       ry="1.870277" />
  </g>
</svg>
