<?xml version="1.0" encoding="UTF-8" standalone="no"?>
<!-- Created with Inkscape (http://www.inkscape.org/) -->

<svg
   width="210mm"
   height="297mm"
   viewBox="0 0 210 297"
   version="1.1"
   id="svg5"
   sodipodi:docname="18.svg"
   inkscape:version="1.1.2 (b8e25be833, 2022-02-05)"
   xmlns:inkscape="http://www.inkscape.org/namespaces/inkscape"
   xmlns:sodipodi="http://sodipodi.sourceforge.net/DTD/sodipodi-0.dtd"
   xmlns="http://www.w3.org/2000/svg"
   xmlns:svg="http://www.w3.org/2000/svg">
  <sodipodi:namedview
     id="namedview7"
     pagecolor="#ffffff"
     bordercolor="#666666"
     borderopacity="1.0"
     inkscape:pageshadow="2"
     inkscape:pageopacity="0.0"
     inkscape:pagecheckerboard="0"
     inkscape:document-units="mm"
     showgrid="false"
     inkscape:zoom="0.70733726"
     inkscape:cx="176.01222"
     inkscape:cy="751.40959"
     inkscape:window-width="1920"
     inkscape:window-height="991"
     inkscape:window-x="-9"
     inkscape:window-y="-9"
     inkscape:window-maximized="1"
     inkscape:current-layer="layer1"
     showguides="false" />
  <defs
     id="defs2" />
  <g
     inkscape:label="圖層 1"
     inkscape:groupmode="layer"
     id="layer1">
    <rect
       style="fill:#afdde9;fill-rule:evenodd;stroke-width:0.304983"
       id="rect165"
       width="463.96301"
       height="350.11588"
       x="-153.87119"
       y="4.4886646" />
    <path
       sodipodi:type="star"
       style="fill:#ffffff;stroke:#000000;stroke-width:2.89876275;stroke-miterlimit:4;stroke-dasharray:none"
       id="path625"
       inkscape:flatsided="false"
       sodipodi:sides="3"
       sodipodi:cx="716.77264"
       sodipodi:cy="271.44052"
       sodipodi:r1="84.376289"
       sodipodi:r2="56.532112"
       sodipodi:arg1="0.54616656"
       sodipodi:arg2="1.5933641"
       inkscape:rounded="0.12"
       inkscape:randomized="0"
       d="m 788.87403,315.26686 c -4.64148,7.63599 -64.44337,12.89303 -73.37708,12.69138 -8.93371,-0.20165 -68.4375,-8.15161 -72.72972,-15.98925 -4.29222,-7.83765 21.056,-62.25612 25.69748,-69.89211 4.64149,-7.636 41.27825,-55.19281 50.21196,-54.99116 8.93371,0.20165 43.38738,49.36308 47.6796,57.20073 4.29222,7.83764 27.15925,63.34441 22.51776,70.98041 z"
       transform="matrix(0.27561975,-0.2632702,0.24911866,0.25546686,-231.7678,215.82315)"
       inkscape:transform-center-x="-7.0942035"
       inkscape:transform-center-y="8.9735856" />
    <path
       sodipodi:type="star"
       style="fill:#ffffff;stroke:#000000;stroke-width:3.19593164;stroke-miterlimit:4;stroke-dasharray:none"
       id="path543"
       inkscape:flatsided="false"
       sodipodi:sides="3"
       sodipodi:cx="716.77264"
       sodipodi:cy="271.44052"
       sodipodi:r1="84.376289"
       sodipodi:r2="56.532112"
       sodipodi:arg1="0.54616656"
       sodipodi:arg2="1.5933641"
       inkscape:rounded="0.12"
       inkscape:randomized="0"
       d="m 788.87403,315.26686 c -4.64148,7.63599 -64.44337,12.89303 -73.37708,12.69138 -8.93371,-0.20165 -68.4375,-8.15161 -72.72972,-15.98925 -4.29222,-7.83765 21.056,-62.25612 25.69748,-69.89211 4.64149,-7.636 41.27825,-55.19281 50.21196,-54.99116 8.93371,0.20165 43.38738,49.36308 47.6796,57.20073 4.29222,7.83764 27.15925,63.34441 22.51776,70.98041 z"
       transform="matrix(0.34391963,0.15265832,-0.14771831,0.32013501,-67.982129,-105.43184)"
       inkscape:transform-center-x="9.2689009"
       inkscape:transform-center-y="3.5799952" />
    <ellipse
       style="fill:#ffffff;stroke-width:1.151;stroke:#000000;stroke-miterlimit:4;stroke-dasharray:none"
       id="path313"
       cx="85.70858"
       cy="143.67252"
       rx="72.753777"
       ry="55.54723"
       transform="rotate(-2.3209277)" />
    <ellipse
       style="fill:#ffffff;stroke-width:0.264583"
       id="path439"
       cx="-123.56245"
       cy="165.74109"
       rx="28.802267"
       ry="26.93199"
       transform="rotate(24.643095)" />
    <path
       sodipodi:type="star"
       style="fill:#ffd5e5;stroke:#000000;stroke-width:5.09018707;stroke-miterlimit:4;stroke-dasharray:none"
       id="path841"
       inkscape:flatsided="false"
       sodipodi:sides="3"
       sodipodi:cx="-243.16547"
       sodipodi:cy="391.6095"
       sodipodi:r1="136.01448"
       sodipodi:r2="91.1297"
       sodipodi:arg1="1.9320001"
       sodipodi:arg2="2.9791976"
       inkscape:rounded="0.12"
       inkscape:randomized="0"
       d="m -291.23306,518.84725 c -13.47529,-5.09067 -39.5341,-98.28843 -41.8631,-112.5037 -2.329,-14.21528 -7.37292,-110.85608 3.77337,-119.98069 11.14629,-9.12461 104.88732,14.90668 118.36261,19.99735 13.47529,5.09066 99.69064,49.0429 102.01964,63.25817 2.329,14.21528 -65.35323,83.38175 -76.49952,92.50636 -11.14629,9.12461 -92.31771,61.81317 -105.793,56.72251 z"
       transform="matrix(-0.18544799,0.10481603,-0.09330465,-0.20832746,90.571756,191.85131)"
       inkscape:transform-center-x="-1.3722406"
       inkscape:transform-center-y="-5.1364733" />
    <path
       sodipodi:type="star"
       style="fill:#ffd5e5;stroke:#000000;stroke-width:4.85556957;stroke-miterlimit:4;stroke-dasharray:none"
       id="path923"
       inkscape:flatsided="false"
       sodipodi:sides="3"
       sodipodi:cx="-243.16547"
       sodipodi:cy="391.6095"
       sodipodi:r1="136.01448"
       sodipodi:r2="91.1297"
       sodipodi:arg1="1.9320001"
       sodipodi:arg2="2.9791976"
       inkscape:rounded="0.12"
       inkscape:randomized="0"
       d="m -291.23306,518.84725 c -13.47529,-5.09067 -39.5341,-98.28843 -41.8631,-112.5037 -2.329,-14.21528 -7.37292,-110.85608 3.77337,-119.98069 11.14629,-9.12461 104.88732,14.90668 118.36261,19.99735 13.47529,5.09066 99.69064,49.0429 102.01964,63.25817 2.329,14.21528 -65.35323,83.38175 -76.49952,92.50636 -11.14629,9.12461 -92.31771,61.81317 -105.793,56.72251 z"
       transform="matrix(0.06144643,0.23336821,-0.21266984,0.07839853,253.5392,123.8331)"
       inkscape:transform-center-x="4.9280908"
       inkscape:transform-center-y="0.57815117" />
    <ellipse
       style="fill:#ffd5e5;stroke-width:1.105;stroke:#000000;stroke-miterlimit:4;stroke-dasharray:none"
       id="path649"
       cx="143.32619"
       cy="67.342972"
       rx="8.7903023"
       ry="14.775189"
       transform="rotate(12.636901)" />
    <rect
       style="fill:#ffaacc;stroke:#000000;stroke-width:1.164;stroke-miterlimit:4;stroke-dasharray:none"
       id="rect2388"
       width="68.452141"
       height="52.741814"
       x="65.08564"
       y="191.51637" />
    <rect
       style="fill:#ffaacc;stroke:#000000;stroke-width:0.817513;stroke-miterlimit:4;stroke-dasharray:none"
       id="rect2618"
       width="76.706291"
       height="23.21637"
       x="63.202904"
       y="232.27594" />
    <path
       style="fill:#ffaacc;fill-rule:evenodd;stroke-width:0.865;stroke:#1f1c24;opacity:1;stroke-miterlimit:4;stroke-dasharray:none"
       id="path153"
       sodipodi:type="arc"
       sodipodi:cx="-102.21732"
       sodipodi:cy="-288.5108"
       sodipodi:rx="67.89106"
       sodipodi:ry="62.841309"
       sodipodi:start="0"
       sodipodi:end="3.1543772"
       sodipodi:open="true"
       sodipodi:arc-type="arc"
       d="m -34.326263,-288.5108 a 67.89106,62.841309 0 0 1 -34.196395,54.55557 67.89106,62.841309 0 0 1 -68.140072,-0.40318 67.89106,62.841309 0 0 1 -33.44011,-54.95577"
       transform="rotate(-179.69152)" />
    <path
       style="opacity:1;fill:#ffffff;stroke:#000000;stroke-width:0.70009175;stroke-miterlimit:4;stroke-dasharray:none"
       id="path1542"
       sodipodi:type="arc"
       sodipodi:cx="-84.935318"
       sodipodi:cy="278.2395"
       sodipodi:rx="16.0886"
       sodipodi:ry="28.865236"
       sodipodi:start="3.1548635"
       sodipodi:end="3.1530533"
       sodipodi:arc-type="slice"
       d="m -101.0225,277.85645 a 16.0886,28.865236 0 0 1 16.293405,-28.47981 16.0886,28.865236 0 0 1 15.881147,29.21979 16.0886,28.865236 0 0 1 -16.279032,28.50626 16.0886,28.865236 0 0 1 -15.89588,-29.194 l 16.087542,0.33081 z"
       transform="matrix(-0.99973791,-0.02289358,0,1,0,0)" />
    <path
       style="opacity:1;fill:#ffffff;stroke:#000000;stroke-width:0.969;stroke-miterlimit:4;stroke-dasharray:none"
       id="path1664"
       sodipodi:type="arc"
       sodipodi:cx="117.07935"
       sodipodi:cy="280.60452"
       sodipodi:rx="16.084383"
       sodipodi:ry="28.865236"
       sodipodi:start="3.1548635"
       sodipodi:end="3.1530533"
       sodipodi:arc-type="slice"
       d="m 100.99639,280.22147 a 16.084383,28.865236 0 0 1 16.28913,-28.47981 16.084383,28.865236 0 0 1 15.87699,29.21979 16.084383,28.865236 0 0 1 -16.27477,28.50626 16.084383,28.865236 0 0 1 -15.89171,-29.19399 l 16.08332,0.3308 z" />
    <rect
       style="fill:#ffaacc;stroke:none;stroke-width:1.25881;stroke-miterlimit:4;stroke-dasharray:none"
       id="rect2678"
       width="52.272945"
       height="23.096624"
       x="81.264832"
       y="221.16156" />
    <ellipse
       style="fill:#ffffff;stroke:#000000;stroke-width:1.12398;stroke-miterlimit:4;stroke-dasharray:none"
       id="path2096"
       cx="82.105171"
       cy="221.06673"
       rx="16.665476"
       ry="25.081722" />
    <ellipse
       style="fill:#ffffff;stroke:#000000;stroke-width:1.56469;stroke-miterlimit:4;stroke-dasharray:none"
       id="path1924"
       cx="78.73867"
       cy="200.11964"
       rx="20.559729"
       ry="14.387815" />
    <ellipse
       style="fill:#ffffff;stroke:#000000;stroke-width:1.11168;stroke-miterlimit:4;stroke-dasharray:none"
       id="ellipse2362"
       cx="121.75504"
       cy="220.8797"
       rx="16.671625"
       ry="24.526789" />
    <ellipse
       style="fill:#ffffff;stroke:#000000;stroke-width:1.51628;stroke-miterlimit:4;stroke-dasharray:none"
       id="ellipse2072"
       cx="120.44585"
       cy="200.11964"
       rx="19.27474"
       ry="14.41202" />
    <ellipse
       style="fill:#ffffff;stroke:none;stroke-width:0.902914;stroke-miterlimit:4;stroke-dasharray:none"
       id="path2258"
       cx="81.731117"
       cy="212.08942"
       rx="14.401134"
       ry="11.969773" />
    <ellipse
       style="fill:#ffffff;stroke:none;stroke-width:0.902914;stroke-miterlimit:4;stroke-dasharray:none"
       id="ellipse2364"
       cx="122.1291"
       cy="214.70781"
       rx="14.401134"
       ry="11.969773" />
    <ellipse
       style="fill:#ff0000;fill-rule:evenodd;stroke-width:0.264583"
       id="path155"
       cx="52.180729"
       cy="324.68011"
       rx="0.56108308"
       ry="0.74811083" />
    <path
       style="opacity:1;fill:#ffffff;stroke:#000000;stroke-width:0.169;stroke-miterlimit:4;stroke-dasharray:none"
       id="path1694"
       sodipodi:type="arc"
       sodipodi:cx="86.780853"
       sodipodi:cy="302.79788"
       sodipodi:rx="19.076824"
       sodipodi:ry="13.653022"
       sodipodi:start="3.1548572"
       sodipodi:end="3.1530595"
       sodipodi:arc-type="slice"
       d="m 67.705707,302.61679 a 19.076824,13.653022 0 0 1 19.319611,-13.47081 19.076824,13.653022 0 0 1 18.830902,13.82073 19.076824,13.653022 0 0 1 -19.302685,13.48322 19.076824,13.653022 0 0 1 -18.848252,-13.8086 l 19.07557,0.15655 z" />
    <path
       style="opacity:1;fill:#ffffff;stroke:#000000;stroke-width:0.069;stroke-miterlimit:4;stroke-dasharray:none"
       id="path1776"
       sodipodi:type="arc"
       sodipodi:cx="120.81989"
       sodipodi:cy="302.79785"
       sodipodi:rx="19.076824"
       sodipodi:ry="13.653022"
       sodipodi:start="3.1548572"
       sodipodi:end="3.1530595"
       sodipodi:arc-type="slice"
       d="m 101.74475,302.61676 a 19.076824,13.653022 0 0 1 19.31961,-13.47081 19.076824,13.653022 0 0 1 18.8309,13.82073 19.076824,13.653022 0 0 1 -19.30269,13.48322 19.076824,13.653022 0 0 1 -18.84825,-13.8086 l 19.07557,0.15655 z" />
    <path
       style="opacity:1;fill:#000000;stroke:none;stroke-width:0.63874;stroke-miterlimit:4;stroke-dasharray:none"
       id="path1872"
       sodipodi:type="arc"
       sodipodi:cx="64.898621"
       sodipodi:cy="130.35831"
       sodipodi:rx="6.1719141"
       sodipodi:ry="9.538413"
       sodipodi:start="3.1548572"
       sodipodi:end="3.1530595"
       sodipodi:arc-type="slice"
       d="m 58.727249,130.23179 a 6.1719141,9.538413 0 0 1 6.250463,-9.41111 6.1719141,9.538413 0 0 1 6.092351,9.65557 6.1719141,9.538413 0 0 1 -6.244987,9.41979 6.1719141,9.538413 0 0 1 -6.097964,-9.64711 l 6.171509,0.10938 z" />
    <path
       style="opacity:1;fill:#000000;stroke:none;stroke-width:0.63874;stroke-miterlimit:4;stroke-dasharray:none"
       id="path1998"
       sodipodi:type="arc"
       sodipodi:cx="108.28905"
       sodipodi:cy="129.98425"
       sodipodi:rx="6.1719141"
       sodipodi:ry="9.538413"
       sodipodi:start="3.1548572"
       sodipodi:end="3.1530595"
       sodipodi:arc-type="slice"
       d="m 102.11768,129.85773 a 6.1719141,9.538413 0 0 1 6.25046,-9.41111 6.1719141,9.538413 0 0 1 6.09235,9.65558 6.1719141,9.538413 0 0 1 -6.24499,9.41979 6.1719141,9.538413 0 0 1 -6.09796,-9.64711 l 6.17151,0.10937 z" />
    <path
       style="opacity:1;fill:#ffffff;stroke:none;stroke-width:0.63874;stroke-miterlimit:4;stroke-dasharray:none"
       id="path2022"
       sodipodi:type="arc"
       sodipodi:cx="65.485481"
       sodipodi:cy="139.33563"
       sodipodi:rx="2.6441662"
       sodipodi:ry="3.7405541"
       sodipodi:start="3.1548572"
       sodipodi:end="3.1530595"
       sodipodi:arc-type="slice"
       d="m 62.841548,139.28602 a 2.6441662,3.7405541 0 0 1 2.677818,-3.69063 2.6441662,3.7405541 0 0 1 2.610079,3.7865 2.6441662,3.7405541 0 0 1 -2.675471,3.69403 2.6441662,3.7405541 0 0 1 -2.612485,-3.78318 l 2.643992,0.0429 z" />
    <path
       style="opacity:1;fill:#ffffff;stroke:none;stroke-width:0.63874;stroke-miterlimit:4;stroke-dasharray:none"
       id="path2148"
       sodipodi:type="arc"
       sodipodi:cx="68.322586"
       sodipodi:cy="130.38405"
       sodipodi:rx="3.4241941"
       sodipodi:ry="2.2443314"
       sodipodi:start="3.1548572"
       sodipodi:end="3.1530595"
       sodipodi:arc-type="slice"
       d="m 64.898693,130.35428 a 3.4241941,2.2443314 0 0 1 3.467773,-2.21438 3.4241941,2.2443314 0 0 1 3.380052,2.2719 3.4241941,2.2443314 0 0 1 -3.464734,2.21642 3.4241941,2.2443314 0 0 1 -3.383167,-2.26991 l 3.423969,0.0257 z" />
    <path
       style="opacity:1;fill:#ffffff;stroke:none;stroke-width:0.63874;stroke-miterlimit:4;stroke-dasharray:none"
       id="path2230"
       sodipodi:type="arc"
       sodipodi:cx="108.47662"
       sodipodi:cy="140.33127"
       sodipodi:rx="2.6441662"
       sodipodi:ry="3.7405541"
       sodipodi:start="3.1548572"
       sodipodi:end="3.1530595"
       sodipodi:arc-type="slice"
       d="m 105.83269,140.28165 a 2.6441662,3.7405541 0 0 1 2.67782,-3.69063 2.6441662,3.7405541 0 0 1 2.61008,3.7865 2.6441662,3.7405541 0 0 1 -2.67547,3.69404 2.6441662,3.7405541 0 0 1 -2.61249,-3.78318 l 2.64399,0.0429 z" />
    <path
       style="opacity:1;fill:#ffffff;stroke:none;stroke-width:0.63874;stroke-miterlimit:4;stroke-dasharray:none"
       id="path2232"
       sodipodi:type="arc"
       sodipodi:cx="111.71301"
       sodipodi:cy="130.00999"
       sodipodi:rx="3.4241941"
       sodipodi:ry="2.2443314"
       sodipodi:start="3.1548572"
       sodipodi:end="3.1530595"
       sodipodi:arc-type="slice"
       d="m 108.28912,129.98023 a 3.4241941,2.2443314 0 0 1 3.46777,-2.21438 3.4241941,2.2443314 0 0 1 3.38005,2.2719 3.4241941,2.2443314 0 0 1 -3.46473,2.21642 3.4241941,2.2443314 0 0 1 -3.38317,-2.26991 l 3.42397,0.0257 z" />
    <path
       sodipodi:type="star"
       style="opacity:1;fill:#ffff00;stroke:none;stroke-width:0.63874;stroke-miterlimit:4;stroke-dasharray:none"
       id="path2256"
       inkscape:flatsided="false"
       sodipodi:sides="3"
       sodipodi:cx="-377.47198"
       sodipodi:cy="624.87872"
       sodipodi:r1="29.418289"
       sodipodi:r2="18.23934"
       sodipodi:arg1="-2.5269297"
       sodipodi:arg2="-1.4797322"
       inkscape:rounded="0"
       inkscape:randomized="0"
       d="m -401.50578,607.91369 25.69245,-1.19873 25.05039,5.8324 -11.80809,22.84968 -17.57621,18.77808 -13.88435,-21.65095 z"
       transform="matrix(0.23450475,-0.01721609,0.01713205,0.23246972,164.49494,0.30972046)"
       inkscape:transform-center-x="30.346152"
       inkscape:transform-center-y="-4.255101" />
    <path
       sodipodi:type="star"
       style="opacity:1;fill:#ffffff;stroke:none;stroke-width:0.63874;stroke-miterlimit:4;stroke-dasharray:none"
       id="path2259"
       inkscape:flatsided="false"
       sodipodi:sides="3"
       sodipodi:cx="-624.87872"
       sodipodi:cy="583.87988"
       sodipodi:r1="5.6550112"
       sodipodi:r2="3.5061069"
       sodipodi:arg1="3.1415927"
       sodipodi:arg2="4.1887902"
       inkscape:rounded="0"
       inkscape:randomized="0"
       d="m -630.53373,583.87988 3.90195,-3.03637 4.58056,-1.86101 0.6786,4.89738 -0.6786,4.89739 -4.58056,-1.86101 z"
       transform="scale(0.26458333)"
       inkscape:transform-center-x="0.28428003"
       inkscape:transform-center-y="-1.9462663e-06" />
    <ellipse
       style="opacity:1;fill:#ffd5d5;stroke:none;stroke-width:0.169;stroke-miterlimit:4;stroke-dasharray:none"
       id="path2431"
       cx="129.98425"
       cy="155.42001"
       rx="7.6681361"
       ry="3.5535264" />
    <ellipse
       style="opacity:1;fill:#ffd5d5;stroke:none;stroke-width:0.169;stroke-miterlimit:4;stroke-dasharray:none"
       id="ellipse2531"
       cx="54.425056"
       cy="157.29028"
       rx="7.6681361"
       ry="3.5535264" />
    <ellipse
       style="opacity:1;fill:#ffd5d5;stroke:none;stroke-width:0.169;stroke-miterlimit:4;stroke-dasharray:none"
       id="path2592"
       cx="101.18199"
       cy="279.23239"
       rx="11.782745"
       ry="8.4162464" />
    <path
       sodipodi:type="star"
       style="opacity:1;fill:#ffd5d5;stroke:none;stroke-width:0.63874;stroke-miterlimit:4;stroke-dasharray:none"
       id="path2616"
       inkscape:flatsided="false"
       sodipodi:sides="3"
       sodipodi:cx="-301.12933"
       sodipodi:cy="573.98364"
       sodipodi:r1="64.477043"
       sodipodi:r2="39.975769"
       sodipodi:arg1="0.90975316"
       sodipodi:arg2="1.9569507"
       inkscape:rounded="0"
       inkscape:randomized="0"
       d="m -261.54426,624.87874 -54.6411,-13.86297 -48.81296,-28.198 39.32624,-40.38909 48.82666,-28.17427 15.31486,54.25207 z"
       transform="matrix(0.23500073,-0.1215689,0.1215689,0.23500073,80.134355,106.11977)"
       inkscape:transform-center-x="-0.77723736"
       inkscape:transform-center-y="-3.2278297" />
    <path
       sodipodi:type="star"
       style="opacity:1;fill:#ffd5d5;stroke:none;stroke-width:0.63874;stroke-miterlimit:4;stroke-dasharray:none"
       id="path2698"
       inkscape:flatsided="false"
       sodipodi:sides="3"
       sodipodi:cx="-301.12933"
       sodipodi:cy="573.98364"
       sodipodi:r1="64.477043"
       sodipodi:r2="39.975769"
       sodipodi:arg1="0.90975316"
       sodipodi:arg2="1.9569507"
       inkscape:rounded="0"
       inkscape:randomized="0"
       d="m -261.54426,624.87874 -54.6411,-13.86297 -48.81296,-28.198 39.32624,-40.38909 48.82666,-28.17427 15.31486,54.25207 z"
       transform="matrix(0.26453992,-0.00479283,0.00479283,0.26453992,194.75931,124.34577)"
       inkscape:transform-center-x="3.0688941"
       inkscape:transform-center-y="-1.3215459" />
    <ellipse
       style="opacity:1;fill:#ff8080;stroke:none;stroke-width:0.169;stroke-miterlimit:4;stroke-dasharray:none"
       id="path2850"
       cx="-55.921284"
       cy="159.16058"
       rx="11.034635"
       ry="10.66058" />
    <ellipse
       style="opacity:1;fill:#c8b7b7;stroke:none;stroke-width:0.169;stroke-miterlimit:4;stroke-dasharray:none"
       id="path2852"
       cx="8.2292185"
       cy="234.53275"
       rx="8.2292185"
       ry="7.8551636" />
    <ellipse
       style="opacity:1;fill:#ffb380;stroke:none;stroke-width:0.169;stroke-miterlimit:4;stroke-dasharray:none"
       id="path2854"
       cx="213.39862"
       cy="123.43829"
       rx="7.6681361"
       ry="6.358942" />
    <ellipse
       style="opacity:1;fill:#e9c6af;stroke:none;stroke-width:0.169;stroke-miterlimit:4;stroke-dasharray:none"
       id="path2856"
       cx="203.11208"
       cy="193.94774"
       rx="7.1070528"
       ry="6.1719141" />
    <ellipse
       style="opacity:1;fill:#ffaaaa;stroke:none;stroke-width:0.169;stroke-miterlimit:4;stroke-dasharray:none"
       id="path2858"
       cx="-99.498741"
       cy="275.86588"
       rx="13.465995"
       ry="8.0421915" />
    <ellipse
       style="opacity:1;fill:#ffffff;stroke:none;stroke-width:0.169;stroke-miterlimit:4;stroke-dasharray:none"
       id="path2860"
       cx="-46.38287"
       cy="82.666245"
       rx="11.221663"
       ry="8.2292185" />
    <ellipse
       style="opacity:1;fill:#ffccaa;stroke:none;stroke-width:0.169;stroke-miterlimit:4;stroke-dasharray:none"
       id="path2862"
       cx="208.72292"
       cy="320.19144"
       rx="8.2292185"
       ry="6.7329974" />
  </g>
</svg>
